<?xml version="1.0" encoding="UTF-8" standalone="no"?>
<!-- Created with Inkscape (http://www.inkscape.org/) -->

<svg
   xmlns:dc="http://purl.org/dc/elements/1.1/"
   xmlns:cc="http://creativecommons.org/ns#"
   xmlns:rdf="http://www.w3.org/1999/02/22-rdf-syntax-ns#"
   xmlns:svg="http://www.w3.org/2000/svg"
   xmlns="http://www.w3.org/2000/svg"
   xmlns:xlink="http://www.w3.org/1999/xlink"
   xmlns:sodipodi="http://sodipodi.sourceforge.net/DTD/sodipodi-0.dtd"
   xmlns:inkscape="http://www.inkscape.org/namespaces/inkscape"
   width="16"
   height="16"
   viewBox="0 0 16 16"
   id="svg2"
   version="1.1"
   inkscape:version="0.91 r13725"
   sodipodi:docname="point-set-viewer.svg">
  <defs
     id="defs4">
    <linearGradient
       inkscape:collect="always"
       id="linearGradient4328">
      <stop
         style="stop-color:#e4dac8;stop-opacity:1"
         offset="0"
         id="stop4330" />
      <stop
         id="stop4336"
         offset="0.87049544"
         style="stop-color:#faf1e1;stop-opacity:1" />
      <stop
         style="stop-color:#ffffe5;stop-opacity:1"
         offset="0.93693876"
         id="stop4338" />
      <stop
         style="stop-color:#e9eaea;stop-opacity:1"
         offset="1"
         id="stop4332" />
    </linearGradient>
    <linearGradient
       inkscape:collect="always"
       xlink:href="#linearGradient4328"
       id="linearGradient5273"
       gradientUnits="userSpaceOnUse"
       gradientTransform="matrix(0.34103856,0,0,0.3404877,-0.36332155,694.08908)"
       x1="23.05172"
       y1="1051.0179"
       x2="23.30172"
       y2="1003.8118" />
  </defs>
  <sodipodi:namedview
     id="base"
     pagecolor="#ffffff"
     bordercolor="#666666"
     borderopacity="1.0"
     inkscape:pageopacity="0.0"
     inkscape:pageshadow="2"
     inkscape:zoom="38.006989"
     inkscape:cx="5.5736323"
     inkscape:cy="7.2730969"
     inkscape:document-units="px"
     inkscape:current-layer="layer1"
     showgrid="true"
     units="px"
     inkscape:snap-object-midpoints="true"
     inkscape:snap-grids="false"
     inkscape:object-nodes="true"
     inkscape:window-width="1920"
     inkscape:window-height="1017"
     inkscape:window-x="0"
     inkscape:window-y="30"
     inkscape:window-maximized="1"
     inkscape:snap-nodes="true"
     inkscape:object-paths="true"
     inkscape:snap-others="true">
    <inkscape:grid
       type="xygrid"
       id="grid4136"
       dotted="false" />
  </sodipodi:namedview>
  <metadata
     id="metadata7">
    <rdf:RDF>
      <cc:Work
         rdf:about="">
        <dc:format>image/svg+xml</dc:format>
        <dc:type
           rdf:resource="http://purl.org/dc/dcmitype/StillImage" />
        <dc:title />
      </cc:Work>
    </rdf:RDF>
  </metadata>
  <g
     inkscape:label="Layer 1"
     inkscape:groupmode="layer"
     id="layer1"
     transform="translate(0,-1036.3622)"
     style="display:inline">
    <path
       sodipodi:nodetypes="sssssssss"
       inkscape:connector-curvature="0"
       id="path5271"
       d="m 1.2713267,1036.8526 13.5683943,0 c 0.417492,0 0.753596,0.3355 0.753596,0.7524 l 0,13.5261 c 0,0.4168 -0.336104,0.7524 -0.753596,0.7524 l -13.5683943,0 c -0.41749192,0 -0.73792991,-0.2011 -0.73839374,-0.618 l -0.0152,-13.6605 c -4.6374e-4,-0.4169 0.33610364,-0.7524 0.75359372,-0.7524 z"
       style="fill:url(#linearGradient5273);fill-opacity:1;stroke:none;stroke-width:1;stroke-linejoin:bevel;stroke-miterlimit:4;stroke-dasharray:none;stroke-dashoffset:0;stroke-opacity:1" />
    <path
       style="fill:none;fill-opacity:1;stroke:#1f222b;stroke-width:0.5;stroke-linejoin:bevel;stroke-miterlimit:4;stroke-dasharray:none;stroke-dashoffset:0;stroke-opacity:1"
       d="m 1.5756549,1036.6158 12.7887761,0 c 0.715308,0 1.380175,0.6891 1.380175,1.3839 l 0,12.7375 c 0,0.7568 -0.664867,1.4055 -1.371313,1.4055 l -12.6735649,0 c -0.77463723,0 -1.46880086,-0.6503 -1.46880086,-1.3258 l 0,-12.7374 c 0,-1.1112 0.65600676,-1.4637 1.34472766,-1.4637 z"
       id="path5114"
       inkscape:connector-curvature="0"
       sodipodi:nodetypes="sssssssss" />
    <path
       style="fill:none;fill-rule:evenodd;stroke:#b053bf;stroke-width:1;stroke-linecap:butt;stroke-linejoin:miter;stroke-opacity:0.64423078;stroke-miterlimit:4;stroke-dasharray:none"
       d="m 3.5162791,1048.9015 9.0232559,-0.018"
       id="path4357"
       inkscape:connector-curvature="0"
       sodipodi:nodetypes="cc" />
    <path
       style="fill:none;fill-rule:evenodd;stroke:#ffd83b;stroke-width:1;stroke-linecap:butt;stroke-linejoin:miter;stroke-opacity:0.53846157;stroke-miterlimit:4;stroke-dasharray:none"
       d="m 12.52094,1040.3622 0.0186,8.5208"
       id="path4359"
       inkscape:connector-curvature="0"
       sodipodi:nodetypes="cc" />
    <path
       style="fill:none;fill-rule:evenodd;stroke:#ffa96f;stroke-width:1;stroke-linecap:butt;stroke-linejoin:miter;stroke-opacity:0.54807693;stroke-miterlimit:4;stroke-dasharray:none"
       d="m 3.5130871,1039.8828 9.0264479,9.0002"
       id="path4361"
       inkscape:connector-curvature="0"
       sodipodi:nodetypes="cc" />
    <path
       style="display:inline;fill:#151a23;fill-opacity:1;stroke:none;stroke-width:1;stroke-linejoin:bevel;stroke-miterlimit:4;stroke-dasharray:none;stroke-dashoffset:0;stroke-opacity:1"
       d="m 11.251258,1046.0742 c -0.383894,0.8438 -0.610572,1.0431 -1.4152298,1.4495 l 2.7198258,3.0813 c 0,0 0.581574,0.03 1.130249,-0.5778 0.472546,-0.5229 0.485118,-0.9508 0.485118,-0.9508 z"
       id="rect4265"
       inkscape:connector-curvature="0"
       sodipodi:nodetypes="cccscc" />
    <path
       style="fill:#ffffff;fill-opacity:0.19417473;fill-rule:evenodd;stroke:none;stroke-width:1px;stroke-linecap:butt;stroke-linejoin:miter;stroke-opacity:1"
       d="m 11.130332,1046.0616 -0.255458,0.7034 3.001126,3.0576 c 0.38653,-0.4291 0.246908,-0.7799 0.246908,-0.7799 l -2.879166,-3.0027 z"
       id="path4360"
       inkscape:connector-curvature="0"
       sodipodi:nodetypes="cccccc" />
    <path
       style="fill:none;fill-rule:evenodd;stroke:#95ac64;stroke-width:1;stroke-linecap:butt;stroke-linejoin:bevel;stroke-miterlimit:4;stroke-dasharray:none;stroke-opacity:0.65865386"
       d="m 2.9900601,1049.7171 9.7534429,-10.3434 -9.7752396,0.031 z"
       id="path4355"
       inkscape:connector-curvature="0"
       sodipodi:nodetypes="cccc" />
    <path
       style="fill:#131313;fill-opacity:1;stroke:none;stroke-width:1;stroke-linejoin:bevel;stroke-miterlimit:4;stroke-dasharray:none;stroke-dashoffset:0;stroke-opacity:1"
       d="m 4.4682634,1039.4048 c 0,0.8285 -0.792893,1.5 -1.5000009,1.5 -0.7071062,0 -1.4999991,-0.6715 -1.4999991,-1.5 0,-0.8283 0.6715718,-1.5 1.4999991,-1.5 0.8284273,0 1.5000009,0.6714 1.5000009,1.5 z"
       id="path4320"
       inkscape:connector-curvature="0"
       sodipodi:nodetypes="sssss" />
    <g
       id="g4363"
       transform="matrix(1.401365,0,0,1.4018366,-3.476174,-419.7685)">
      <path
         sodipodi:nodetypes="sssss"
         inkscape:connector-curvature="0"
         id="path4259"
         d="m 10.557192,1044.4789 c 0.03712,1.3213 -1.0251726,2.4212 -2.3727094,2.457 -1.347534,0.036 -2.4700312,-1.0062 -2.507174,-2.3273 -0.037134,-1.3211 1.02517,-2.4212 2.3727165,-2.457 1.3475388,-0.035 2.4700349,1.0062 2.5071669,2.3273 z"
         style="display:inline;fill:#5fb6ca;fill-opacity:0.16990291;stroke:none;stroke-width:1;stroke-linejoin:bevel;stroke-miterlimit:4;stroke-dasharray:none;stroke-dashoffset:0;stroke-opacity:1" />
      <path
         sodipodi:nodetypes="sssss"
         inkscape:connector-curvature="0"
         id="ellipse4261"
         d="m 10.682256,1044.3781 c 0.03712,1.3211 -1.0251753,2.4212 -2.3727137,2.4569 -1.3475397,0.035 -2.4700294,-1.0062 -2.5071521,-2.3273 -0.037124,-1.3211 1.0251723,-2.4212 2.372708,-2.457 1.3475421,-0.035 2.4700358,1.0063 2.5071578,2.3274 z"
         style="display:inline;fill:none;fill-opacity:0.82038838;stroke:#151a23;stroke-width:0.71346986;stroke-linejoin:bevel;stroke-miterlimit:4;stroke-dasharray:none;stroke-dashoffset:0;stroke-opacity:1" />
    </g>
    <path
       sodipodi:nodetypes="sssss"
       inkscape:connector-curvature="0"
       id="path4351"
       d="m 14.243503,1039.3739 c 0,0.8283 -0.792893,1.4998 -1.500001,1.4998 -0.707106,0 -1.499999,-0.6715 -1.499999,-1.4998 0,-0.8285 0.671572,-1.5002 1.499999,-1.5002 0.828427,0 1.500001,0.6715 1.500001,1.5002 z"
       style="fill:#131313;fill-opacity:1;stroke:none;stroke-width:1;stroke-linejoin:bevel;stroke-miterlimit:4;stroke-dasharray:none;stroke-dashoffset:0;stroke-opacity:1" />
    <path
       style="fill:#131313;fill-opacity:1;stroke:none;stroke-width:1;stroke-linejoin:bevel;stroke-miterlimit:4;stroke-dasharray:none;stroke-dashoffset:0;stroke-opacity:1"
       d="m 4.4890581,1049.2431 c 0,0.8283 -0.792893,1.4999 -1.5000008,1.4999 -0.7071062,0 -1.4999992,-0.6716 -1.4999992,-1.4999 0,-0.8284 0.6715724,-1.5001 1.4999992,-1.5001 0.8284268,0 1.5000008,0.6715 1.5000008,1.5001 z"
       id="path4353"
       inkscape:connector-curvature="0"
       sodipodi:nodetypes="sssss" />
  </g>
  <g
     inkscape:groupmode="layer"
     id="layer2"
     inkscape:label="Locked"
     style="display:inline"
     sodipodi:insensitive="true"
     transform="translate(0,-32)" />
</svg>
